<?xml version="1.0" encoding="UTF-8" standalone="no"?>
<!-- Created with Inkscape (http://www.inkscape.org/) -->

<svg
   xmlns:dc="http://purl.org/dc/elements/1.1/"
   xmlns:cc="http://creativecommons.org/ns#"
   xmlns:rdf="http://www.w3.org/1999/02/22-rdf-syntax-ns#"
   xmlns:svg="http://www.w3.org/2000/svg"
   xmlns="http://www.w3.org/2000/svg"
   xmlns:sodipodi="http://sodipodi.sourceforge.net/DTD/sodipodi-0.dtd"
   xmlns:inkscape="http://www.inkscape.org/namespaces/inkscape"
   width="18"
   height="142.99998"
   viewBox="0 0 4.7624999 37.835414"
   version="1.1"
   id="svg4755"
   inkscape:version="0.92.3 (2405546, 2018-03-11)"
   sodipodi:docname="icons.svg">
  <defs
     id="defs4749" />
  <sodipodi:namedview
     id="base"
     pagecolor="#ffffff"
     bordercolor="#666666"
     borderopacity="1.0"
     inkscape:pageopacity="0.0"
     inkscape:pageshadow="2"
     inkscape:zoom="4"
     inkscape:cx="-9.6786638"
     inkscape:cy="74.619525"
     inkscape:document-units="mm"
     inkscape:current-layer="layer1"
     showgrid="true"
     units="px"
     fit-margin-top="0"
     fit-margin-left="0"
     fit-margin-right="0"
     fit-margin-bottom="0"
     inkscape:window-width="1853"
     inkscape:window-height="1145"
     inkscape:window-x="67"
     inkscape:window-y="27"
     inkscape:window-maximized="1"
     inkscape:pagecheckerboard="true"
     inkscape:snap-grids="false">
    <inkscape:grid
       type="xygrid"
       id="grid5093"
       units="px"
       spacingx="4.7625001"
       spacingy="4.7625001"
       originx="0"
       originy="-0.26458615" />
  </sodipodi:namedview>
  <metadata
     id="metadata4752">
    <rdf:RDF>
      <cc:Work
         rdf:about="">
        <dc:format>image/svg+xml</dc:format>
        <dc:type
           rdf:resource="http://purl.org/dc/dcmitype/StillImage" />
        <dc:title></dc:title>
      </cc:Work>
    </rdf:RDF>
  </metadata>
  <g
     inkscape:label="Calque 1"
     inkscape:groupmode="layer"
     id="layer1"
     transform="translate(0,-258.89996)">
    <g
       id="g4805"
       transform="matrix(0.26458333,0,0,0.26458333,0,287.47496)"
       style="fill:#ffffff;fill-opacity:1">
      <polygon
         id="polygon4801"
         points="17,8 17,1 10,1 10,3 13.6,3 9.6,7 11,8.4 15,4.4 15,8 "
         style="fill:#ffffff;fill-opacity:1" />
      <polygon
         id="polygon4803"
         points="8,15 4.4,15 8.4,11 7,9.6 3,13.6 3,10 1,10 1,17 8,17 "
         style="fill:#ffffff;fill-opacity:1" />
    </g>
    <g
       id="g4822"
       transform="matrix(0.25198413,0,0,0.25198413,0.11339286,292.35085)"
       style="fill:#ffffff;fill-opacity:1">
      <polygon
         id="polygon4818"
         points="8,10 1,10 1,12 4.6,12 0.6,16 2,17.4 6,13.4 6,17 8,17 "
         style="fill:#ffffff;fill-opacity:1" />
      <polygon
         id="polygon4820"
         points="13.4,6 17.4,2 16,0.6 12,4.6 12,1 10,1 10,8 17,8 17,6 "
         style="fill:#ffffff;fill-opacity:1" />
    </g>
    <g
       id="g4853"
       transform="matrix(0.26458333,0,0,0.26458333,0,277.94996)"
       style="fill:#ffffff;fill-opacity:1">
      <polygon
         id="polygon4849"
         points="11,6.9 13.1,9 11,11.1 12.4,12.5 14.5,10.4 16.6,12.5 18,11.1 15.9,9 18,6.9 16.6,5.5 14.5,7.6 12.4,5.5 "
         style="fill:#ffffff;fill-opacity:1" />
      <path
         id="path4851"
         d="M 3.7857143,6.0082065 H 0.71428571 C 0.28571429,6.0082065 0,6.3090128 0,6.7602222 v 4.5120948 c 0,0.451209 0.28571429,0.752015 0.71428571,0.752015 H 3.7857143 l 4.0714286,3.85766 C 8.3571429,16.182798 9,15.881992 9,15.28038 V 2.7521593 C 9,2.1505467 8.3571429,1.7745388 7.8571429,2.1505467 Z"
         inkscape:connector-curvature="0"
         style="fill:#ffffff;fill-opacity:1" />
    </g>
    <g
       id="g4870"
       transform="matrix(0.26458333,0,0,0.26458333,0,263.66246)"
       style="fill:#ffffff;fill-opacity:1">
      <path
         id="path4866"
         d="M 6,1 H 3 C 2.4,1 2,1.4 2,2 v 14 c 0,0.6 0.4,1 1,1 h 3 c 0.6,0 1,-0.4 1,-1 V 2 C 7,1.4 6.6,1 6,1 Z"
         inkscape:connector-curvature="0"
         style="fill:#ffffff;fill-opacity:1" />
      <path
         id="path4868"
         d="m 12,1 c -0.6,0 -1,0.4 -1,1 v 14 c 0,0.6 0.4,1 1,1 h 3 c 0.6,0 1,-0.4 1,-1 V 2 C 16,1.4 15.6,1 15,1 Z"
         inkscape:connector-curvature="0"
         style="fill:#ffffff;fill-opacity:1" />
    </g>
    <g
       id="g4902"
       transform="matrix(0.26458333,0,0,0.26458333,0,258.89996)"
       style="fill:#ffffff;fill-opacity:1">
      <path
         id="path4900"
         d="M 15.561587,8.1000215 3.8705637,0.22520931 C 3.0521921,-0.33727727 2,0.22520931 2,1.1251878 V 16.874812 c 0,0.899979 1.0521921,1.462465 1.8705637,0.899979 L 15.561587,9.8999785 c 0.584551,-0.4499892 0.584551,-1.3499678 0,-1.799957 z"
         inkscape:connector-curvature="0"
         style="fill:#ffffff;fill-opacity:1" />
    </g>
    <g
       id="g4944"
       transform="matrix(0.26458333,0,0,0.26458333,0,282.71246)"
       style="fill:#ffffff;fill-opacity:1">
      <path
         id="path4942"
         d="M 16.135,7.784 C 14.832,7.458 14.214,5.966 14.905,4.815 15.227,4.279 15.13,3.817 14.811,3.499 l -0.31,-0.31 C 14.183,2.871 13.721,2.774 13.185,3.095 12.033,3.786 10.541,3.168 10.216,1.865 10.065,1.258 9.669,1 9.219,1 H 8.781 C 8.331,1 7.936,1.258 7.784,1.865 7.458,3.168 5.966,3.786 4.815,3.095 4.279,2.773 3.816,2.87 3.498,3.188 l -0.31,0.31 C 2.87,3.816 2.773,4.279 3.095,4.815 3.786,5.967 3.168,7.459 1.865,7.784 1.26,7.935 1,8.33 1,8.781 v 0.438 c 0,0.45 0.258,0.845 0.865,0.997 1.303,0.326 1.921,1.818 1.23,2.969 -0.322,0.536 -0.225,0.998 0.094,1.316 l 0.31,0.31 c 0.319,0.319 0.782,0.415 1.316,0.094 1.152,-0.691 2.644,-0.073 2.969,1.23 C 7.935,16.742 8.331,17 8.781,17 h 0.438 c 0.45,0 0.845,-0.258 0.997,-0.865 0.326,-1.303 1.818,-1.921 2.969,-1.23 0.535,0.321 0.997,0.225 1.316,-0.094 l 0.31,-0.31 c 0.318,-0.318 0.415,-0.781 0.094,-1.316 -0.691,-1.152 -0.073,-2.644 1.23,-2.969 C 16.742,10.065 17,9.669 17,9.219 V 8.781 C 17,8.33 16.74,7.935 16.135,7.784 Z M 9,12 C 7.343,12 6,10.657 6,9 6,7.343 7.343,6 9,6 c 1.657,0 3,1.343 3,3 0,1.657 -1.343,3 -3,3 z"
         inkscape:connector-curvature="0"
         style="fill:#ffffff;fill-opacity:1" />
    </g>
    <g
       id="g4962"
       transform="matrix(0.26458333,0,0,0.26458333,0,273.18746)"
       style="fill:#ffffff;fill-opacity:1">
      <path
         id="path4956"
         d="m 15.6,3.3 c -0.4,-0.4 -1,-0.4 -1.4,0 -0.4,0.4 -0.4,1 0,1.4 1.2,1.2 1.8,2.7 1.8,4.3 0,1.6 -0.6,3.1 -1.8,4.3 -0.4,0.4 -0.4,1 0,1.4 0.2,0.2 0.5,0.3 0.7,0.3 0.3,0 0.5,-0.1 0.7,-0.3 C 17.1,13.2 18,11.2 18,9 18,6.8 17.1,4.8 15.6,3.3 Z"
         inkscape:connector-curvature="0"
         style="fill:#ffffff;fill-opacity:1" />
      <path
         id="path4958"
         d="m 11.281975,5.2819745 c -0.375966,0.375966 -0.375966,0.9399149 0,1.3158809 0.735179,0.7351794 0.99532,1.4581991 0.99532,2.4021448 0,0.9358844 -0.425617,1.9172008 -0.99532,2.4869048 -0.375966,0.375966 -0.375966,0.939915 0,1.315881 0.145189,0.14519 0.635697,0.262167 1.01784,0.156471 0.112633,-0.03115 0.215852,-0.08165 0.298041,-0.156471 1.175515,-1.070132 1.53326,-2.642995 1.533396,-3.8027858 2e-5,-0.1700447 -0.0026,-0.3398437 -0.01159,-0.5102573 -0.05219,-0.9918934 -0.318648,-2.0046068 -1.52181,-3.2077684 -0.375966,-0.375966 -0.939914,-0.375966 -1.31588,0 z"
         inkscape:connector-curvature="0"
         style="fill:#ffffff;fill-opacity:1" />
      <path
         id="path4960"
         d="M 3.7857143,6.0082065 H 0.71428571 C 0.28571429,6.0082065 0,6.3090128 0,6.7602222 v 4.5120948 c 0,0.451209 0.28571429,0.752015 0.71428571,0.752015 H 3.7857143 l 4.0714286,3.85766 C 8.3571429,16.182798 9,15.881992 9,15.28038 V 2.7521593 C 9,2.1505467 8.3571429,1.7745388 7.8571429,2.1505467 Z"
         inkscape:connector-curvature="0"
         style="fill:#ffffff;fill-opacity:1" />
    </g>
    <path
       style="color:#000000;font-style:normal;font-variant:normal;font-weight:normal;font-stretch:normal;font-size:medium;line-height:normal;font-family:sans-serif;font-variant-ligatures:normal;font-variant-position:normal;font-variant-caps:normal;font-variant-numeric:normal;font-variant-alternates:normal;font-feature-settings:normal;text-indent:0;text-align:start;text-decoration:none;text-decoration-line:none;text-decoration-style:solid;text-decoration-color:#000000;letter-spacing:normal;word-spacing:normal;text-transform:none;writing-mode:lr-tb;direction:ltr;text-orientation:mixed;dominant-baseline:auto;baseline-shift:baseline;text-anchor:start;white-space:normal;shape-padding:0;clip-rule:nonzero;display:inline;overflow:visible;visibility:visible;opacity:1;isolation:auto;mix-blend-mode:normal;color-interpolation:sRGB;color-interpolation-filters:linearRGB;solid-color:#000000;solid-opacity:1;vector-effect:none;fill:#ffffff;fill-opacity:1;fill-rule:nonzero;stroke:none;stroke-width:0.70459372;stroke-linecap:butt;stroke-linejoin:round;stroke-miterlimit:4;stroke-dasharray:none;stroke-dashoffset:0;stroke-opacity:1;color-rendering:auto;image-rendering:auto;shape-rendering:auto;text-rendering:auto;enable-background:accumulate"
       d="m 2.3807905,268.68901 c -1.1648725,2.4e-4 -2.11620717,0.95223 -2.11620717,2.11717 0,1.1651 0.95158307,2.1167 2.11666667,2.1167 1.1650836,0 2.1166666,-0.9516 2.1166666,-2.1167 H 3.7931269 c 0,0.78431 -0.6275813,1.41328 -1.4118769,1.41328 -0.7842958,0 -1.41371464,-0.62897 -1.41371462,-1.41328 0,-0.78416 0.62917542,-1.41166 1.41325512,-1.4119 z"
       id="path5073"
       inkscape:connector-curvature="0" />
  </g>
</svg>
